<?xml version="1.0" encoding="UTF-8" standalone="no"?>
<!DOCTYPE svg PUBLIC "-//W3C//DTD SVG 1.1//EN" "http://www.w3.org/Graphics/SVG/1.1/DTD/svg11.dtd">
<svg width="100%" height="100%" viewBox="0 0 257 184" version="1.1" xmlns="http://www.w3.org/2000/svg" xmlns:xlink="http://www.w3.org/1999/xlink" xml:space="preserve" xmlns:serif="http://www.serif.com/" style="fill-rule:evenodd;clip-rule:evenodd;stroke-linejoin:round;stroke-miterlimit:2;">
    <g transform="matrix(1.460938,0,0,1.460938,-293.059539,-170.611172)">
        <path d="M306.499,116.846C311.296,116.833 363.709,116.687 366.456,116.886C369.888,117.134 376.034,120.221 376.224,127.513C376.435,135.669 376.167,135.666 376.301,229.5C376.306,232.98 376.49,234.754 373.552,238.545C372.965,239.303 370.434,241.319 368.587,241.807C366.001,242.491 365.945,242.147 307.5,242.224C299.743,242.235 212.638,242.35 210.536,242.093C209.608,241.98 201.115,240.792 200.668,231.497C200.666,231.458 200.471,127.715 200.736,125.523C201.016,123.205 203.523,116.94 211.51,116.85C219.109,116.765 219.105,116.865 306.499,116.846Z" style="fill:rgb(26,164,215);fill-opacity:1;"/>
    </g>
    <g transform="matrix(1.460938,0,0,1.460938,-293.059539,-170.611172)">
        <path d="M273.944,170.5C273.944,191.166 273.944,211.832 273.945,232.497C273.949,235.588 274.599,236.786 271.501,236.988C271.226,237.006 213.943,237.162 212.524,237.044C205.479,236.461 205.176,230.355 205.134,229.512C205.014,227.087 205.132,139.207 205.058,136.5C205.052,136.276 204.998,134.329 205.706,133.773C206.448,133.191 206.566,133.333 225.5,133.327C267.838,133.313 267.824,133.187 271.5,133.351C274.623,133.489 273.951,135.111 273.951,141.499C273.949,151.166 273.946,160.833 273.944,170.5Z" style="fill:rgb(14,23,37);fill-opacity:1;"/>
    </g>
    <g transform="matrix(1.460938,0,0,1.460938,-293.059539,-170.611172)">
        <path d="M309.501,237.042C304.395,236.843 304.393,236.848 304.348,236.833C304.224,236.791 303.504,236.547 303.399,235.509C303.303,234.566 303.298,149.689 303.315,142.498C303.332,134.886 302.699,133.467 305.496,133.359C308.818,133.231 343.22,133.369 346.501,133.382C369.93,133.476 370.174,132.97 371.135,133.944C371.637,134.452 371.679,137.209 371.683,137.497C371.732,140.643 371.718,213.86 371.716,220.501C371.715,227.346 372.678,234.346 366.532,236.576C365.928,236.796 364.775,237.214 358.501,236.979C358.16,236.966 309.562,237.039 309.501,237.042Z" style="fill:rgb(13,23,35);fill-opacity:1;"/>
    </g>
    <g transform="matrix(1.460938,0,0,1.460938,-293.059539,-170.611172)">
        <path d="M278.131,166.502C278.142,159.576 278.102,135.96 278.124,135.466C278.189,134.035 278.094,133.708 279.482,133.404C280.671,133.143 295.141,133.34 296.502,133.359C297.531,133.373 299.09,133.232 299.201,135.516C299.212,135.741 299.264,235.195 299.224,235.466C298.909,237.611 296.054,236.972 292.498,236.973C280.638,236.974 279.029,237.117 278.483,236.514C277.921,235.895 278.203,235.734 278.131,166.502Z" style="fill:rgb(13,22,36);fill-opacity:1;"/>
    </g>
    <g transform="matrix(1.460938,0,0,1.460938,-293.059539,-170.611172)">
        <path d="M347.174,186.537C347.227,190.431 347.887,192.486 344.503,192.657C342.522,192.756 314.087,192.796 313.464,192.627C312.301,192.313 312.249,190.704 312.243,190.509C312.104,186.232 312.128,184.996 313.551,184.754C314.7,184.558 314.702,184.725 340.501,184.611C340.898,184.609 344.773,184.592 345.473,184.698C347.251,184.969 347.105,186.345 347.174,186.537Z" style="fill:rgb(13,179,185);fill-opacity:1;"/>
    </g>
    <g transform="matrix(1.460938,0,0,1.460938,-293.059539,-170.611172)">
        <path d="M249.943,174.502C249.933,174.832 250.024,175.159 250.014,175.489C249.922,178.61 248.616,177.877 245.5,177.882C245.267,177.882 217.846,177.893 217.476,177.882C215.539,177.821 215.222,177.147 215.195,175.506C215.139,172.107 215.119,170.528 216.34,170.117C217.08,169.868 217.103,169.934 243.5,169.909C245.646,169.907 248.809,169.731 249.534,170.469C249.755,170.695 249.882,171.335 249.898,171.414C249.946,171.657 249.901,171.643 249.943,174.502Z" style="fill:rgb(36,129,230);fill-opacity:1;"/>
    </g>
    <g transform="matrix(1.460938,0,0,1.460938,-293.059539,-170.611172)">
        <path d="M343.057,171.522C343.034,175.175 343.165,176.311 339.501,176.371C336.996,176.412 315.251,176.414 314.504,176.385C311.802,176.28 312.384,175.193 312.4,172.502C312.415,169.976 312.98,169.784 315.503,169.756C317.643,169.733 341.157,169.471 342.259,169.994C342.521,170.118 342.634,170.334 342.654,170.373C342.944,170.929 342.771,170.975 343.057,171.522Z" style="fill:rgb(65,92,112);fill-opacity:1;"/>
    </g>
    <g transform="matrix(1.460938,0,0,1.460938,-293.059539,-170.611172)">
        <path d="M343.096,203.497C343.022,203.81 343.136,204.148 343.062,204.46C342.534,206.691 341.8,206.147 339.502,206.155C337.502,206.163 316.281,206.242 314.502,206.183C314.289,206.176 312.575,206.119 312.446,204.502C312.422,204.201 312.207,201.509 312.794,200.742C313.372,199.987 313.595,200.102 336.504,200.1C340.731,200.1 342.451,199.832 342.918,201.347C342.969,201.512 342.931,201.506 343.096,203.497Z" style="fill:rgb(59,81,99);fill-opacity:1;"/>
    </g>
    <g transform="matrix(1.460938,0,0,1.460938,-293.059539,-170.611172)">
        <path d="M314.478,155.115C316.569,155.097 339.636,154.898 340.614,155.194C342.46,155.752 341.787,160.072 341.58,160.543C341.216,161.377 340.927,161.316 329.502,161.307C313.853,161.295 313.178,161.582 312.664,160.435C312.517,160.106 311.994,155.849 313.402,155.308C313.742,155.177 314.138,155.246 314.478,155.115Z" style="fill:rgb(64,84,102);fill-opacity:1;"/>
    </g>
    <g transform="matrix(1.460938,0,0,1.460938,-293.059539,-170.611172)">
        <path d="M323.5,140.709C339.494,140.705 339.476,140.705 339.494,140.706C341.498,140.743 342.1,141.081 341.917,144.53C341.785,147.021 341.003,146.854 338.503,146.844C318.711,146.768 314.199,146.948 313.434,146.638C312.158,146.119 312.746,141.913 312.855,141.643C313.32,140.495 314.89,140.694 323.5,140.709Z" style="fill:rgb(65,86,105);fill-opacity:1;"/>
    </g>
    <g transform="matrix(1.460938,0,0,1.460938,-293.059539,-170.611172)">
        <path d="M238.494,206.196C216.816,206.054 216.483,206.512 215.636,205.422C215.233,204.903 215.053,200.897 216.429,200.342C217.017,200.105 217.022,200.133 232.489,200.104C240.411,200.09 241.473,199.873 241.928,201.359C242.127,202.009 242.138,204.326 242.106,204.482C241.629,206.767 240.835,206.163 238.494,206.196Z" style="fill:rgb(43,57,77);fill-opacity:1;"/>
    </g>
    <g transform="matrix(1.460938,0,0,1.460938,-293.059539,-170.611172)">
        <path d="M240.953,159.516C240.795,159.861 240.866,160.284 240.707,160.629C240.349,161.41 240.048,161.362 219.503,161.3C216.46,161.291 215.404,161.553 215.377,158.503C215.361,156.706 215.257,155.222 217.483,155.1C218.529,155.043 234.973,155.088 236.494,155.092C236.739,155.093 239.401,155.1 239.557,155.131C240.575,155.335 240.675,155.378 240.913,156.386C240.913,156.386 240.95,159.266 240.953,159.516Z" style="fill:rgb(48,62,82);fill-opacity:1;"/>
    </g>
    <g transform="matrix(1.460938,0,0,1.460938,-293.059539,-170.611172)">
        <path d="M239.503,146.806C237.742,146.809 217.881,146.843 217.486,146.81C215.48,146.64 215.391,145.696 215.397,143.5C215.405,140.469 216.474,140.74 219.503,140.73C240.288,140.661 240.28,140.854 240.362,140.883C241.317,141.223 241.289,143.272 241.287,143.494C241.284,143.649 241.263,145.219 241.19,145.427C240.897,146.253 240.609,146.488 240.528,146.554C240.096,146.908 239.937,146.451 239.503,146.806Z" style="fill:rgb(48,62,82);fill-opacity:1;"/>
    </g>
    <g transform="matrix(1.460938,0,0,1.460938,-293.059539,-170.611172)">
        <path d="M312.072,216.493C312.233,215.949 312.015,215.937 312.175,215.396C312.196,215.327 312.32,214.909 312.626,214.625C313.463,213.848 318.803,214.127 332.513,214.169C336.331,214.181 337.83,213.675 337.752,217.503C337.689,220.582 336.579,220.206 333.491,220.213C331.972,220.216 316.562,220.25 314.504,220.198C311.81,220.129 312.108,219.184 312.072,216.493Z" style="fill:rgb(54,74,92);fill-opacity:1;"/>
    </g>
    <g transform="matrix(1.460938,0,0,1.460938,-293.059539,-170.611172)">
        <path d="M241.069,216.515C241.076,219.247 241.233,220.113 238.5,220.192C237.445,220.223 218.544,220.237 217.529,220.153C215.656,219.998 215.408,218.988 215.5,216.5C215.603,213.706 217.288,214.076 221.505,214.122C238.143,214.303 240.222,213.614 240.849,215.355C240.982,215.725 240.936,216.145 241.069,216.515Z" style="fill:rgb(45,59,80);fill-opacity:1;"/>
    </g>
    <g transform="matrix(1.460938,0,0,1.460938,-293.059539,-170.611172)">
        <path d="M241.149,189.505C241.077,191.026 241.509,192.635 238.506,192.722C235.048,192.823 221.938,192.748 220.497,192.74C216.767,192.719 215.282,193.235 215.384,189.499C215.477,186.098 217.053,186.804 222.499,186.768C223.857,186.76 238.486,186.664 239.472,186.77C241.518,186.99 241.099,188.877 241.149,189.505Z" style="fill:rgb(44,58,78);fill-opacity:1;"/>
    </g>
    <g transform="matrix(1.460938,0,0,1.460938,-293.059539,-170.611172)">
        <path d="M286.684,160.261C291.177,163.889 294.961,165.453 293.793,168.625C293.193,170.255 292.524,169.683 287.326,174.3C283.464,177.729 283.041,173.808 283.787,172.677C284.52,171.563 286.536,170.107 286.801,169.916C287.816,169.183 290.54,168.104 287.908,166.047C283.707,162.766 283.601,161.996 283.533,161.495C283.508,161.313 283.275,159.621 284.461,159.394C285.698,159.158 285.625,159.558 286.684,160.261Z" style="fill:rgb(174,219,249);fill-opacity:1;"/>
    </g>
    <g transform="matrix(1.460938,0,0,1.460938,-293.059539,-170.611172)">
        <path d="M288.725,210.216C283.694,206.263 283.616,206.075 283.401,205.551C282.32,202.928 284.266,202.365 289.754,197.805C289.995,197.605 293.209,194.935 293.657,197.457C294.133,200.145 288.62,202.963 288.409,203.428C287.797,204.782 288.378,205.196 290.764,207.162C291.129,207.463 295.134,210.764 293.43,212.434C292.562,213.284 291.132,212.202 288.725,210.216Z" style="fill:rgb(165,214,245);fill-opacity:1;"/>
    </g>
    <g transform="matrix(1.460938,0,0,1.460938,-293.059539,-170.611172)">
        <path d="M221.474,123.956C221.844,124.084 222.256,124.055 222.626,124.183C223.73,124.565 224.852,126.74 221.479,127.192C221.164,127.234 213.004,127.312 212.562,127.171C209.889,126.319 211.399,124.714 211.552,124.55C212.315,123.74 216.729,123.912 221.474,123.956Z" style="fill:rgb(11,15,29);fill-opacity:1;"/>
    </g>
    <g transform="matrix(1.460938,0,0,1.460938,-293.059539,-170.611172)">
        <path d="M353.503,124.043C353.886,124.033 357.571,123.933 358.242,124.74C358.472,125.018 359.315,127.072 356.488,127.344C355.932,127.397 355.828,127.407 349.502,127.354C349.347,127.352 347.787,127.339 347.567,127.239C345.872,126.465 346.456,124.606 347.363,124.241C348.139,123.929 351.29,124.028 353.503,124.043Z" style="fill:rgb(13,23,33);fill-opacity:1;"/>
    </g>
    <g transform="matrix(1.460938,0,0,1.460938,-293.059539,-170.611172)">
        <path d="M365.454,124.089C365.831,124.2 366.254,124.068 366.632,124.179C366.76,124.216 367.65,124.478 367.661,125.495C367.681,127.349 363.619,128.086 363.803,125.547C363.889,124.356 364.361,124.671 365.454,124.089Z" style="fill:rgb(11,20,26);fill-opacity:0.99;"/>
    </g>
</svg>
